<svg xmlns="http://www.w3.org/2000/svg" version="1.1" xmlns:xlink="http://www.w3.org/1999/xlink" xmlns:svgjs="http://svgjs.com/svgjs" width="1440" height="560" preserveAspectRatio="none" viewBox="0 0 1440 560"><g mask="url(&quot;#SvgjsMask1164&quot;)" fill="none"><path d="M798.8315698328115 331.83499743183864L925.2125197881637 390.76740224092305 984.1449245972482 264.38645228557084 857.763974641896 205.45404747648638z" fill="rgba(28, 83, 142, 0.4)" class="triangle-float1"></path><path d="M686.245,345.415C701.406,345.024,709.234,329.076,716.766,315.912C724.22,302.884,733.098,288.53,726.509,275.043C719.343,260.374,702.549,252.594,686.245,253.434C671.194,254.209,659.535,265.483,652.577,278.852C646.192,291.119,646.627,305.22,652.869,317.56C659.879,331.419,670.719,345.815,686.245,345.415" fill="rgba(28, 83, 142, 0.4)" class="triangle-float1"></path><path d="M55.286,88.393C77.83,88.542,90.562,65.251,101.712,45.657C112.685,26.374,124.173,4.656,114.22,-15.173C103.498,-36.535,79.133,-48.464,55.286,-46.837C33.692,-45.364,18.389,-27.389,8.806,-7.982C0.416,9.009,1.682,27.979,9.914,45.048C19.652,65.24,32.868,88.244,55.286,88.393" fill="rgba(28, 83, 142, 0.4)" class="triangle-float1"></path><path d="M874.454533809582 458.1145854814591L927.8824857645325 562.9728452758693 1032.7407455589428 509.54489332091885 979.3127936039923 404.68663352650856z" fill="rgba(28, 83, 142, 0.4)" class="triangle-float2"></path><path d="M1132.737637151562 490.05198562606995L1291.7991515660713 450.39349590788856 1252.1406618478898 291.3319814933794 1093.0791474333807 330.99047121156076z" fill="rgba(28, 83, 142, 0.4)" class="triangle-float2"></path><path d="M-6.73 185.87 a115.88 115.88 0 1 0 231.76 0 a115.88 115.88 0 1 0 -231.76 0z" fill="rgba(28, 83, 142, 0.4)" class="triangle-float2"></path><path d="M-0.797,110.381C13.881,109.811,26.449,101.953,34.863,89.913C45.082,75.291,54.96,57.666,47.303,41.554C38.868,23.806,18.852,14.714,-0.797,14.882C-20.154,15.048,-38.519,25.213,-47.492,42.366C-55.915,58.467,-51.888,77.904,-41.603,92.884C-32.625,105.961,-16.647,110.997,-0.797,110.381" fill="rgba(28, 83, 142, 0.4)" class="triangle-float1"></path><path d="M335.33 66.58 a139.08 139.08 0 1 0 278.16 0 a139.08 139.08 0 1 0 -278.16 0z" fill="rgba(28, 83, 142, 0.4)" class="triangle-float1"></path><path d="M470.7315021853254 377.4734464452279L360.2112823171934 396.96114312181135 379.69897899377685 507.4813629899433 490.2191988619088 487.9936663133599z" fill="rgba(28, 83, 142, 0.4)" class="triangle-float2"></path><path d="M640.8454198085267 420.5711360720813L526.7276911356263 444.8276081043855 550.9841631679305 558.945336777286 665.101891840831 534.6888647449817z" fill="rgba(28, 83, 142, 0.4)" class="triangle-float3"></path><path d="M1155.402,633.693C1204.524,632.998,1253.908,612.917,1277.051,569.583C1299.158,528.189,1284.244,479.103,1259.134,439.459C1236.038,402.995,1198.514,379.624,1155.402,377.525C1107.952,375.214,1058.54,388.653,1032.559,428.425C1004.273,471.727,1001.077,528.731,1027.637,573.113C1053.578,616.461,1104.89,634.408,1155.402,633.693" fill="rgba(28, 83, 142, 0.4)" class="triangle-float1"></path></g><defs><mask id="SvgjsMask1164"><rect width="1440" height="560" fill="#ffffff"></rect></mask><style>
            @keyframes float1 {
                0%{transform: translate(0, 0)}
                50%{transform: translate(-10px, 0)}
                100%{transform: translate(0, 0)}
            }

            .triangle-float1 {
                animation: float1 5s infinite;
            }

            @keyframes float2 {
                0%{transform: translate(0, 0)}
                50%{transform: translate(-5px, -5px)}
                100%{transform: translate(0, 0)}
            }

            .triangle-float2 {
                animation: float2 4s infinite;
            }

            @keyframes float3 {
                0%{transform: translate(0, 0)}
                50%{transform: translate(0, -10px)}
                100%{transform: translate(0, 0)}
            }

            .triangle-float3 {
                animation: float3 6s infinite;
            }
        </style></defs></svg>